<svg xmlns="http://www.w3.org/2000/svg" viewBox="0 0 400 260" width="400" height="260">
  <rect width="400" height="260" rx="14" fill="#F1EDE3"/>
  <rect x="0" y="0" width="400" height="30" rx="14" fill="#3F6C51"/>
  <circle cx="18" cy="15" r="4" fill="#F1EDE3"/>
  <circle cx="32" cy="15" r="4" fill="#F1EDE3"/>
  <circle cx="46" cy="15" r="4" fill="#F1EDE3"/>
  <rect x="24" y="46" width="110" height="80" rx="8" fill="#ffffff"/>
  <rect x="36" y="58" width="60" height="8" rx="4" fill="#D97757"/>
  <polyline points="36,110 55,90 72,100 90,72 108,84" fill="none" stroke="#3F6C51" stroke-width="4" stroke-linecap="round" stroke-linejoin="round"/>
  <rect x="146" y="46" width="110" height="80" rx="8" fill="#ffffff"/>
  <rect x="158" y="58" width="60" height="8" rx="4" fill="#3F6C51"/>
  <rect x="158" y="80" width="18" height="34" rx="3" fill="#D97757"/>
  <rect x="182" y="96" width="18" height="18" rx="3" fill="#EFC9A8"/>
  <rect x="206" y="70" width="18" height="44" rx="3" fill="#3F6C51"/>
  <rect x="230" y="88" width="18" height="26" rx="3" fill="#EFC9A8"/>
  <rect x="268" y="46" width="108" height="80" rx="8" fill="#ffffff"/>
  <circle cx="322" cy="86" r="30" fill="none" stroke="#EDE3D3" stroke-width="10"/>
  <path d="M322 56 A30 30 0 0 1 348 100" fill="none" stroke="#D97757" stroke-width="10" stroke-linecap="round"/>
  <rect x="24" y="140" width="352" height="96" rx="8" fill="#ffffff"/>
  <rect x="40" y="156" width="80" height="8" rx="4" fill="#3F6C51"/>
  <rect x="40" y="176" width="320" height="6" rx="3" fill="#EDE3D3"/>
  <rect x="40" y="190" width="280" height="6" rx="3" fill="#EDE3D3"/>
  <rect x="40" y="204" width="300" height="6" rx="3" fill="#EDE3D3"/>
</svg>
